<svg xmlns="http://www.w3.org/2000/svg" version="1.1" xmlns:xlink="http://www.w3.org/1999/xlink" xmlns:svgjs="http://svgjs.dev/svgjs" width="128" height="128" viewBox="0 0 128 128"><g transform="matrix(0.6130952380952381,0,0,0.6130952380952381,24.86575252597187,12.333870967741937)"><svg viewBox="0 0 118 155" data-background-color="#0072f5" preserveAspectRatio="xMidYMid meet" height="168" width="128" xmlns="http://www.w3.org/2000/svg" xmlns:xlink="http://www.w3.org/1999/xlink"><g id="tight-bounds" transform="matrix(1,0,0,1,-0.15614973262033516,0.25)"><svg viewBox="0 0 118.31229946524066 154.5" height="154.5" width="118.31229946524066"><g><svg viewBox="0 0 118.31229946524066 154.5" height="154.5" width="118.31229946524066"><g><svg viewBox="0 0 118.31229946524066 154.5" height="154.5" width="118.31229946524066"><g id="textblocktransform"><svg viewBox="0 0 118.31229946524066 154.5" height="154.5" width="118.31229946524066" id="textblock"><g><svg viewBox="0 0 118.31229946524066 154.5" height="154.5" width="118.31229946524066"><g transform="matrix(1,0,0,1,0,0)"><svg width="118.31229946524066" viewBox="2.4 -35.65 35.800000000000004 46.75000000000001" height="154.5" data-palette-color="#f8fafc"><path d="M30.3 11.1L30.3 11.1Q28 11.1 26.13 10.13 24.25 9.15 23.18 7.28 22.1 5.4 22.1 2.7L22.1 2.7Q22.1 2.1 22.15 1.43 22.2 0.75 22.3 0.1L22.3 0.1Q18.2 0.45 14.6-0.65 11-1.75 8.25-4.15 5.5-6.55 3.95-9.98 2.4-13.4 2.4-17.7L2.4-17.7Q2.4-21.4 3.68-24.65 4.95-27.9 7.3-30.38 9.65-32.85 12.95-34.25 16.25-35.65 20.3-35.65L20.3-35.65Q24.4-35.65 27.7-34.27 31-32.9 33.35-30.45 35.7-28 36.95-24.78 38.2-21.55 38.2-17.9L38.2-17.9 38.2 2.35Q38.2 5.1 37.23 7.05 36.25 9 34.45 10.05 32.65 11.1 30.3 11.1ZM30.05 7.75L30.05 7.75Q31.95 7.75 33.27 6.45 34.6 5.15 34.6 2.5L34.6 2.5 34.6-11Q31.6-9.25 29.8-7.38 28-5.5 27.08-3.7 26.15-1.9 25.85-0.35 25.55 1.2 25.55 2.35L25.55 2.35Q25.55 4.1 26.18 5.33 26.8 6.55 27.85 7.15 28.9 7.75 30.05 7.75ZM20.3-3L20.3-3Q21.2-3 21.9-3.08 22.6-3.15 23.45-3.3L23.45-3.3Q24.15-5.2 25.48-7.2 26.8-9.2 29.03-11.13 31.25-13.05 34.6-14.8L34.6-14.8 34.6-17.9Q34.6-21 33.52-23.65 32.45-26.3 30.53-28.28 28.6-30.25 26-31.33 23.4-32.4 20.3-32.4L20.3-32.4Q17.25-32.4 14.63-31.3 12-30.2 10.08-28.23 8.15-26.25 7.08-23.55 6-20.85 6-17.7L6-17.7Q6-14.55 7.08-11.85 8.15-9.15 10.08-7.18 12-5.2 14.63-4.1 17.25-3 20.3-3Z" opacity="1" transform="matrix(1,0,0,1,0,0)" fill="#f8fafc" class="wordmark-text-0" data-fill-palette-color="primary" id="text-0"></path></svg></g></svg></g></svg></g></svg></g><g></g></svg></g><defs></defs></svg><rect width="118.31229946524066" height="154.5" fill="none" stroke="none" visibility="hidden"></rect></g></svg></g></svg>